<svg version="1.1" id="Layer_1" xmlns="http://www.w3.org/2000/svg" xmlns:xlink="http://www.w3.org/1999/xlink" x="0px" y="0px"
	 width="100%" viewBox="0 0 1024 544" enable-background="new 0 0 1024 544" xml:space="preserve">
<path fill="#000000" opacity="1.000000" stroke="none" 
	d="
M459.084106,417.063232 
	C412.348846,395.315155 383.723114,359.548767 373.536011,309.369080 
	C360.862488,246.941696 390.752838,180.541275 448.976624,150.988846 
	C487.926880,131.218994 528.226929,129.479950 568.138245,146.802567 
	C614.048157,166.728790 641.894165,202.493607 652.322632,251.389542 
	C665.425232,312.823883 638.253540,374.037537 587.477234,406.369995 
	C560.949585,423.261810 531.913147,430.449554 500.367584,427.525726 
	C486.106598,426.203918 472.556183,422.722931 459.084106,417.063232 
M421.634430,189.134796 
	C415.305817,195.057266 410.496338,202.132950 405.211914,210.587540 
	C421.427094,195.701569 439.009094,186.572800 459.504852,183.168304 
	C477.885559,180.115128 495.525757,182.404236 511.829926,191.280594 
	C534.985474,203.887009 544.056213,227.414734 540.806458,252.704346 
	C540.107910,258.140900 539.460693,263.718964 536.174133,269.475250 
	C533.318298,264.753784 530.807312,260.902313 528.592896,256.887329 
	C520.694519,242.566574 500.257355,245.279358 492.465393,256.919617 
	C485.690094,267.041016 486.424957,277.753418 488.849915,288.663788 
	C500.423462,340.736237 561.814331,367.152832 607.216675,339.191345 
	C630.062134,325.121765 642.940002,304.700958 641.738953,276.931427 
	C640.878784,257.043671 636.407898,238.014282 627.083740,220.355316 
	C606.608337,181.576981 574.781799,157.322922 531.485413,150.718369 
	C488.994446,144.236694 452.340637,157.973572 421.634430,189.134796 
M389.712524,318.878998 
	C405.034058,366.046814 436.217407,396.840057 483.941589,410.521698 
	C482.860718,409.113159 481.397247,408.133881 479.940033,407.145355 
	C444.544342,383.134644 427.747620,350.035767 432.894165,307.262421 
	C436.266815,279.231934 449.958710,256.619598 473.998932,241.217957 
	C489.874817,231.046875 506.857056,227.740952 524.719727,236.562988 
	C525.419617,236.908615 526.259338,236.971237 527.259338,237.222321 
	C528.451050,232.441177 526.747253,228.427567 525.067078,224.520798 
	C516.607605,204.850876 500.015808,196.959824 480.177032,195.544998 
	C449.406616,193.350601 424.481415,205.737991 405.874695,229.815384 
	C385.487244,256.197052 380.468353,285.983948 389.712524,318.878998 
M450.722321,352.776276 
	C459.491882,374.637360 474.768494,390.634064 495.658752,401.004333 
	C514.583557,410.398895 534.610962,414.258850 555.087402,406.812805 
	C581.999329,397.026520 603.543823,379.954071 619.479919,356.047699 
	C622.502808,351.513000 625.739258,347.015259 627.559204,340.409821 
	C615.192749,351.055145 602.283630,358.341125 587.492249,361.233368 
	C549.217712,368.717316 517.345825,357.221100 492.915497,326.888702 
	C479.420807,310.133820 472.943665,290.619141 474.693939,268.786163 
	C475.091248,263.829926 477.091827,259.279114 478.569855,254.108917 
	C450.928711,271.790924 435.885437,313.732117 450.722321,352.776276 
z"/>
</svg>