<svg version="1.2" xmlns="http://www.w3.org/2000/svg" viewBox="0 0 960 1091" width="960" height="1091">
	<style>
		.s0 { fill: #1b2325 } 
	</style>
	<g id="BG">
	</g>
	<g id="Folder 1">
		<path id="Shape 1" fill-rule="evenodd" class="s0" d="m476.3 390.77c0.96 5.06 9.61 22.2 14.24 29.8 4.49 7.39 13.12 18.57 17.79 20.02 4.67 1.44 15.79 1.55 25.46 3 9.68 1.45 19.02 3.34 27.36 6.56-8.67-14.46 2.89-42.7 6.79-50.38 3.89-7.67 14.34-20.24 30.47-31.69 16.12-11.45 19.35-14.57 18.57-19.57-0.78-5.01-4.7-8.99-25.25-8.01-4.67 0.22-1.11 2.23-1.11 2.23 0 0-23.8-1.78-15.9 3.11-11.23-1.22-30.36 3.56-18.46 5.78-13.24-0.55-22.35 2.11-14.46 4.01-12.23-0.45-19.46 4.11-13.01 6-7.56-0.22-18.35 2.89-12.34 5-6.34 0-9.9 3.34-9.9 3.34l1.33 2.78c-5.67-1-13.34 3.11-8.78 4.12-6.23 0.33-13.79 4.89-10.79 6.45-5.45-0.12-8.78 2-9.12 3.22-0.33 1.22 2.31 1.34 1.56 2.78-3.11-0.89-4.77-0.22-4.45 1.45z"/>
		<path id="Shape 2" fill-rule="evenodd" class="s0" d="m804.25 407.94c3.9-7.04-55.25-18.48-57.92-20.01-2.67-1.52-14.27-13.15-23.69-14.66-9.42-1.52-24.6-4.69-47.77 17.94-23.17 22.63-21.25 38.96-45.71 58.38-24.46 19.42-54.94 9.08-65.37 5.31-10.43-3.78-32.46-8.55-47.75-9.09 4.14 3.24 4.86 2.52 9.89 6.03-11.78-1.26-19.6-1.89-33.27-19.96 0 0-20.45-27.13-32.99-67.38-12.54-40.26-11.9-56.16-20.99-64.83-9.1-8.67-29.58-18.58-39.13-23.27-9.54-4.69-37.68-19.93-49.4-24.11-11.72-4.19-23.11-11.06-29.13-14.07-6.03-3.02-36.68-18.42-44.21-21.77-7.54-3.35-55.6-23.61-63.97-25.96-8.38-2.34-10.72 0.34-3.18 9.55 7.53 9.21 22.6 21.77 71 41.7-49.57-16.75-83.73-26.8-99.3-30.82-15.58-4.02-5.36 9.21 2.68 14.91 8.03 5.69 34.16 17.08 47.89 20.93 13.73 3.85 39.35 12.22 39.35 12.22-28.63-6.69-89.42-14.23-101.98-16.07-12.56-1.84-9.04 10.88 10.38 18.59 19.43 7.7 57.27 13.39 88.08 14.06-34.99 0.5-97.29 1.68-103.99 6.36-6.7 4.69 13.4 13.9 31.32 15.24 17.92 1.34 43.7 1.85 43.7 1.85-24.28 4.01-52.41 9.04-53.75 14.56 0 0 10.21 8.04 27.97 8.88-1.01 4.52 8.2 9.04 12.22 8.54 0.5 4.35 10.05 5.69 12.39 5.02 1.34 6.2 8.37 8.88 13.06 9.21 1.18 7.37 13.06 7.2 16.41 7.71 1.01 8.54 11.39 10.71 14.07 10.71 0.17 5.7 5.19 5.03 7.03 5.2-6.36 5.02-2.51 12.22 5.03 15.9-4.02 7.87 2.17 15.91 5.86 18.76-1.84 4.35 0.5 10.88 4.85 14.4-2.17 5.53 1.01 13.06 4.36 14.9-1.51 5.19 3.35 11.39 6.03 12.9-1.01 5.69 2.84 13.23 9.37 17.92-1.67 9.88 7.04 14.4 9.72 14.4-1.51 3.68 4.18 5.86 7.2 5.19-1.51 3.68 3.01 6.19 6.03 6.53-6.7 4.02-12.41 11.26-8.74 11.39-2.98 3.67-1.8 9.83 9.63 5.63-1.96 3.02 3.79 1.63 7.14 0.69 3.38-0.95 10.61-3.1 14.48-5.02-6.61 6.16-8.65 9.14-19.38 12.69-10.73 3.55-32.93 9.47-44.96 9.96-12.04 0.49-30.97 5.14-31.01 7.34-0.05 2.21 1.5 4.49 7.42 7.06-9.42 4.37-18.16 13.26-0.04 17.71-8.08 5.31-2.08 10.24 5.14 9.67 0 0-6.98 7.18 16.16 2.94 23.14-4.24 30.81-8.65 30.81-8.65-4.61 3.63-9.59 7.22-12.42 9.36-2.83 2.14-3.38 1.38-6.42 3.25-3.04 1.86-6.08 5.73-6.63 7.38-0.55 1.66-11.88 11.81-21.48 19-9.6 7.18-34.81 27.21-41.02 28.31-6.22 1.11-15.4-2.14-19.62 6.08-1.31 2.7 1.11 2.9 1.94 3.66-5.18 1.31-21.07 6.56-21.41 8.57-0.35 2-9.26 5.66-9.67 9.67-0.42 4 1.1 5.31 3.11 5.17 2-0.13 4.83-1.72 7.73-2.62-2.56 4.01-12.22 10.64-7.39 11.4 4.83 0.76 9.05 0.13 18.23-2.7 9.19-2.83 15.34-4.9 24.04-9.11 8.7-4.22 26.09-14.09 38.73-23.11 12.64-9.01 44.62-32.34 56.61-38.39 11.99-6.04 23.05-11.52 31.89-15.61 8.83-4.09 30.58-12.93 48.43-14.69 17.84-1.77 42.6-0.09 62.06-5.21 19.46-5.11 39.63-17.1 53.3-27.61 13.66-10.5 50.01-28.16 75.76-36.53 25.75-8.36 55.59-43.97 64.14-56.24 8.55-12.27 13.66-19.52 17.01-21.19 3.35-1.67 11.43-2.79 17.57-4.09 6.13-1.3 10.69-1.4 15.43-2.42 4.74-1.02 13.94-5.3 20.45-5.48 6.51-0.19 59.19 2.48 60.59-0.06z"/>
	</g>
	<g id="Folder 2">
		<path id="EPTING Media Co." fill-rule="evenodd" class="s0" d="m285.87 799.36h-87.87v-5.87l10.57-4.17q1.02-0.37 1.61-1 0.69-0.7 0.69-2.08v-67.06q0-1.31-0.69-1.84-0.66-0.62-1.61-0.99l-10.57-4.19v-5.85h83.06v26.22h-9.9l-3.09-12.29q-0.31-1.2-1.04-1.77-0.69-0.68-1.78-0.68h-32.9v27.75h17.64q1.36 0 1.87-0.48 0.53-0.59 0.95-1.96l3.09-10.03h8.11v35.84h-8.11l-3.09-9.92q-0.31-1.15-0.95-1.77-0.51-0.74-1.87-0.74h-17.64v31.4h37.83q0.89 0 1.65-0.68 0.85-0.75 1.1-1.83l3.16-13.73h9.78zm63.58 0h-47.86v-5.87l10.57-4.18q1.12-0.47 1.68-1.05 0.62-0.67 0.62-2.02v-67.06q0-1.31-0.69-1.84-0.59-0.63-1.61-0.99l-10.57-4.19v-5.86h47.17q10.2 0 18.47 2.83 8.29 2.73 13.19 8.71 4.96 5.86 4.96 15.43 0 10.08-4.32 17.37-4.21 7.26-11.78 11.22-7.51 3.93-17.27 3.93-3.53 0-8.6-1.42-5.04-1.53-8.11-3.64v-7.97q1.86 0.64 5.23 1.01 3.49 0.26 6.47 0.26 5.08 0 8.19-1.89 3.12-1.99 4.74-4.89 1.64-2.95 2.18-5.83 0.64-2.95 0.64-4.94 0-4.96-1.73-9.23-1.67-4.33-5.83-6.9-4.15-2.69-11.66-2.69h-7.59v68.56q0 1.4 0.69 2.1 0.79 0.63 1.75 0.99l11.07 4.18zm115.76 0h-48.51v-5.88l11.14-4.17q1.1-0.43 1.7-0.99 0.67-0.67 0.67-2.08v-68.69h-19.52q-1.13 0-1.83 0.6-0.66 0.59-0.96 1.85l-3.1 13.84h-9.78v-27.54h91.87v27.54h-9.85l-3.06-13.84q-0.27-1.21-1.1-1.78-0.78-0.67-1.67-0.67h-19.51v68.69q0 1.38 0.69 2.08 0.78 0.68 1.68 0.99l11.14 4.17zm81.54 0h-48.63v-5.87l11.21-4.17q1.15-0.43 1.68-1.06 0.63-0.63 0.63-2.01v-67.07q0-1.31-0.7-1.9-0.66-0.61-1.61-0.93l-11.21-4.19v-5.85h48.63v5.85l-11.2 4.19q-1.03 0.37-1.75 1-0.68 0.52-0.68 1.83v67.07q0 1.38 0.68 2.08 0.73 0.62 1.75 0.99l11.2 4.17zm53.78 0h-38.51v-5.87l10.57-4.67q1.01-0.44 1.61-1 0.68-0.57 0.68-1.95v-66.69q0-1.31-0.68-1.84-0.66-0.62-1.61-0.99l-10.95-4.19v-5.85h34.56l40.34 56.72 4.73 8.09h1.41v-51.57q0-1.04-0.56-1.58-0.43-0.54-1.88-1.18l-10.5-4.63v-5.85h38.58v5.85l-10.48 4.6q-1.34 0.61-1.95 1.21-0.5 0.54-0.5 1.58v65.7l-2.05 14.74h-14.62l-44.98-62.87-4.54-8.03h-1.35v56.78q0 1.22 0.56 1.89 0.64 0.58 1.69 1.06l10.43 4.67zm143.55-12.66v-19.41q0-1.31-0.7-1.86-0.7-0.65-1.61-0.9l-14.14-4.36v-5.75h48.37v5.75l-8.32 4.36q-0.82 0.42-1.64 0.97-0.73 0.48-0.73 1.79v10.12q0 6.27 0.02 10.6 0.12 4.33 0.48 6.83-7.91 2.57-18.53 4.64-10.53 2.01-21.29 2.01-13.66 0-25-5.52-11.28-5.52-18.05-16.24-6.73-10.78-6.73-26.59 0-15.04 6.6-26.02 6.65-10.97 18.18-16.93 11.66-5.95 26.52-5.95 9.54 0 16.31 0.81 6.81 0.82 11.78 1.94 5.06 1.07 9.1 1.95v26.29h-9.79l-3.08-12.71q-0.24-1-1.22-1.61-0.96-0.66-1.8-0.97-4.59-1.94-10.68-3.16-6.05-1.25-10.9-1.25-8.08 0-14.46 3.82-6.34 3.79-9.98 11.53-3.63 7.74-3.63 19.6 0 11.73 3.37 20.72 3.44 8.97 9.99 14.05 6.57 5.01 16.03 5.01 3.03 0 5.61-0.43 2.64-0.47 5.05-1.26 2.46-0.87 4.87-1.87zm-477.37 116.86h-25.36v-3.81l7.6-2.91q0.64-0.22 1.1-0.67 0.5-0.45 0.5-1.44v-49.26q0-0.9-0.45-1.35-0.46-0.49-1.15-0.71l-7.6-2.65v-3.72h25.54l15.93 44.2 2.01 7.58h1.01l17.98-51.78h25.27v3.72l-7.51 2.65q-0.68 0.22-1.23 0.71-0.55 0.45-0.55 1.35v49.53q0 0.99 0.45 1.48 0.51 0.45 1.33 0.72l7.51 2.55v3.81h-28.61v-3.81l7.42-2.55q0.78-0.23 1.28-0.72 0.5-0.49 0.5-1.48v-52.76h-1.1l-2.1 6.73-16.2 44.51-4.3 10.08h-5.68l-19.68-54.59-2.01-6.73h-0.96v52.49q0 0.99 0.46 1.39 0.45 0.41 1.18 0.72l7.42 2.91zm93.62 1.08q-7.05 0-12.77-3-5.72-3.01-9.11-8.84-3.38-5.87-3.38-14.29 0-7.71 3.24-13.81 3.25-6.14 8.93-9.68 5.72-3.59 13.09-3.59 7 0 11.94 2.78 4.99 2.73 7.65 7.35 2.65 4.57 2.65 10.09 0 0.58-0.05 1.61-0.04 1.03-0.18 2.11-0.09 1.03-0.27 1.7h-37.49l0.32-5.33h27.14q0-4.66-1.19-7.94-1.19-3.27-3.89-4.97-2.7-1.75-7.23-1.75-4.3 0-7.14 1.75-2.79 1.7-4.44 4.57-1.6 2.87-2.28 6.32-0.64 3.41-0.64 6.86 0 6.05 1.83 10.71 1.87 4.62 5.95 7.26 4.07 2.65 10.7 2.65 3.62 0 6.87-1.08 3.29-1.07 5.9-2.55 2.66-1.48 4.35-2.69h1.56v5.87q-3.71 2.78-9.61 5.33-5.86 2.56-12.45 2.56zm52.71-0.14q-6.43 0-11.03-3.18-4.58-3.23-7.05-8.74-2.43-5.6-2.43-12.62 0-7.86 2.98-14.32 2.97-6.45 8.46-10.31 5.58-3.9 13.26-3.9 4.59 0 7.7 1.53 3.12 1.47 5.08 3.45v-2.2-13.12q0-0.95-0.5-1.4-0.46-0.45-1.23-0.72l-7.78-2.91v-3.9h19.31v61.54q0 0.92 0.55 1.39 0.59 0.45 1.28 0.72l5.86 2.46v3.9l-16.48 2.29v-8.56h-0.78q-2.79 4.08-6.13 5.91-3.28 1.8-6.27 2.29-2.95 0.4-4.8 0.4zm5.45-7.17q1.69 0 3.88-0.54 2.24-0.53 4.3-1.65 2.09-1.16 3.34-2.98v-32.03q-1.23-0.81-3.43-1.26-2.15-0.49-4.35-0.72-2.13-0.22-3.48-0.22-5.39 0-8.92 2.56-3.48 2.54-5.21 6.81-1.65 4.27-1.65 9.37 0 5.83 1.6 10.53 1.6 4.66 4.99 7.4 3.43 2.73 8.93 2.73zm50.57-53.65q-1.88 0-3.52-0.72-1.61-0.72-2.61-2.06-1.01-1.35-1.01-3.28 0-3.13 2.15-4.7 2.2-1.57 4.99-1.57 3.34 0 5.36 1.43 2.01 1.44 2.01 4.35 0 2.06-0.96 3.54-0.96 1.48-2.61 2.24-1.65 0.77-3.8 0.77zm15.19 59.88h-28.69v-3.76l7.64-2.02q0.78-0.22 1.33-0.67 0.55-0.5 0.55-1.44v-32.49q0-0.95-0.55-1.39-0.55-0.5-1.28-0.72l-7.6-2.47v-3.9l19.22-2.28v43.25q0 0.94 0.55 1.44 0.55 0.49 1.19 0.67l7.64 2.02zm23.71 0.94q-4.8 0-8.24-2.02-3.38-2.06-5.21-5.33-1.79-3.32-1.79-7.04 0-4.84 2.43-8.16 2.47-3.36 6.31-5.38 3.89-2.01 8.19-2.91 4.35-0.9 8.11-0.9 0.73 0 2.42 0.18 1.69 0.14 3.39 0.32 1.74 0.17 2.38 0.26v-6.32q0-5.42-2.93-7.48-2.88-2.11-7.28-2.11-2.38 0-4.85 0.85-2.47 0.81-4.76 2.07-2.29 1.21-4.21 2.46-1.92 1.21-3.25 2.06h-2.1v-9.5q3.02-0.99 5.99-1.93 2.98-0.94 6.5-1.57 3.52-0.62 8.1-0.62 4.76 0 9.02 1.3 4.25 1.25 6.91 4.75 2.7 3.49 2.7 10.17v25.91q0 1.79 1.51 2.96 1.51 1.17 3.11 1.17 1.1 0 2.29-0.5 1.23-0.54 2.33-1.12h0.87v4.35q-0.91 0.67-2.65 1.66-1.74 0.94-3.66 1.7-1.93 0.72-3.39 0.72-4.58 0-6.91-2.15-2.29-2.15-2.29-6.46h-0.78q-2.7 3.72-5.99 5.56-3.3 1.84-6.55 2.47-3.2 0.58-5.72 0.58zm4.62-7.04q3.21 0 7.23-1.3 4.03-1.3 6.14-4.12v-13.67q-6.82 0-11.99 0.71-5.13 0.72-8.01 2.92-2.84 2.15-2.84 6.54 0 3.5 1.46 5.42 1.47 1.93 3.67 2.74 2.19 0.76 4.34 0.76zm129.32-9.28h2.84v6.82q-2.75 2.19-6.59 4.52-3.85 2.29-8.47 3.9-4.62 1.57-9.7 1.57-10.11 0-17.76-4.03-7.59-4.04-11.85-11.75-4.21-7.71-4.21-18.78 0-10.67 4.39-18.47 4.4-7.84 12.08-12.1 7.69-4.3 17.53-4.3 3.57 0 7.92 0.58 4.39 0.58 8.51 1.39 4.12 0.76 6.91 1.39v17.44h-6.4l-1.42-9.82q-0.09-0.67-0.87-1.17-0.73-0.53-1.28-0.8-3.21-1.53-6.41-2.2-3.16-0.72-7.23-0.72-9.98 0-16.25 6.59-6.22 6.55-6.22 20.04 0 14.3 6.5 21.7 6.54 7.35 18.9 7.35 4.48 0 8.1-1.66 3.66-1.71 6.4-3.86 2.75-2.19 4.58-3.63zm38.21 16.54q-7.5 0-13.18-3.18-5.67-3.23-8.88-9.19-3.15-5.97-3.15-14.21 0-7.6 3.15-13.63 3.16-6.05 8.88-9.54 5.78-3.54 13.65-3.54 8.55 0 14.13 3.67 5.59 3.68 8.33 9.73 2.75 6.04 2.75 13.13 0 7.53-3.12 13.63-3.11 6.05-8.87 9.59-5.75 3.54-13.69 3.54zm0.69-5.64q4.16 0 6.91-1.8 2.75-1.84 4.35-4.79 1.6-3.01 2.29-6.55 0.68-3.56 0.68-6.95 0-5.6-1.51-10.58-1.48-5.01-4.85-8.15-3.29-3.19-8.79-3.19-4.12 0-6.91 1.8-2.74 1.79-4.34 4.79-1.6 2.93-2.29 6.46-0.69 3.45-0.69 6.86 0 3.74 0.73 7.66 0.78 3.86 2.47 7.17 1.74 3.28 4.67 5.29 2.93 1.98 7.28 1.98zm29.92-1.6q0-3.12 2.15-5.26 2.17-2.15 5.31-2.15 3.2 0 5.35 2.15 2.25 2.14 2.25 5.26 0 3.12-2.25 5.18-2.15 2.06-5.35 2.06-3.14 0-5.31-2.06-2.15-2.06-2.15-5.18z"/>
	</g>
</svg>