<svg version="1.1" id="Layer_1" xmlns="http://www.w3.org/2000/svg" xmlns:xlink="http://www.w3.org/1999/xlink" x="0px" y="0px"
	 width="100%" viewBox="0 0 896 1024" enable-background="new 0 0 896 1024" xml:space="preserve">
<path fill="#000000" opacity="1.000000" stroke="none" 
	d="
M163.822021,302.585693 
	C167.540604,301.039917 170.713608,302.456177 173.856308,303.342957 
	C200.115540,310.752533 226.037796,319.257782 252.257202,327.069153 
	C244.597794,323.528534 236.758102,320.326813 229.320007,316.370117 
	C217.302063,309.977142 204.825119,304.086487 196.580490,292.452057 
	C194.727417,289.837067 192.109985,286.775604 193.943314,283.966370 
	C196.025986,280.774994 199.833084,282.992493 202.607086,283.983978 
	C224.734818,291.892883 246.441345,300.901093 267.492004,311.304138 
	C304.217926,329.453766 341.830078,345.760925 378.149323,364.742645 
	C387.597656,369.680664 396.899414,374.872986 405.975433,380.486298 
	C414.093597,385.507141 419.298676,392.466095 421.138885,401.809357 
	C425.388397,423.385468 431.139435,444.497437 439.185577,465.013428 
	C445.798767,481.875763 453.945709,497.805176 465.276794,511.974091 
	C470.747559,518.814941 477.112244,524.598511 486.078400,526.581238 
	C486.976410,525.088257 483.909729,525.214111 485.775513,523.142334 
	C493.825378,522.302673 502.430054,523.782227 511.009308,525.402832 
	C522.815918,527.632996 533.918945,532.400757 545.579041,535.145569 
	C569.244812,540.716614 587.938354,532.584473 603.009888,514.260254 
	C612.358154,502.894470 618.569519,489.397614 627.892700,478.050232 
	C636.793945,467.216339 646.930115,457.901215 661.104736,454.591888 
	C672.844910,451.850922 683.741028,454.090515 692.818481,462.183411 
	C697.387695,466.257080 702.550171,468.282379 708.255737,469.787689 
	C722.078003,473.434509 736.022827,476.671997 749.492981,481.557129 
	C750.431396,481.897430 751.384277,482.224701 752.271301,482.674591 
	C754.244629,483.675629 756.554016,484.987305 756.155762,487.341492 
	C755.655579,490.297852 752.707642,489.220490 750.728210,489.315552 
	C735.735840,490.035797 720.796143,488.171295 705.808167,488.321381 
	C701.107849,488.368469 696.476318,488.692230 692.035461,490.194855 
	C680.503906,494.096710 668.457336,495.783112 656.631592,498.362305 
	C649.610596,499.893585 644.472717,503.374359 640.467834,509.028748 
	C634.693970,517.180786 629.247437,525.590759 623.075500,533.429504 
	C607.233032,553.550171 586.983398,568.276611 563.025085,576.660400 
	C536.639587,585.893555 512.693359,598.717285 490.148956,615.232117 
	C468.803040,630.869080 443.966064,637.791443 417.307770,637.087158 
	C399.828583,636.625427 382.508911,638.172974 366.248901,644.623718 
	C340.854980,654.698120 315.892029,665.863586 293.401245,681.709656 
	C280.745026,690.626709 268.317230,699.867371 255.720963,708.870483 
	C241.384109,719.117615 225.854614,726.940918 208.825043,731.700867 
	C204.198532,732.994080 199.845093,735.398743 194.890335,735.300110 
	C192.371399,735.249939 189.059311,736.423218 187.875061,733.129700 
	C186.799835,730.139587 190.151443,729.115784 191.950928,726.780396 
	C188.118896,727.390686 185.085556,729.607178 181.213211,729.712280 
	C186.198853,717.154785 194.650818,709.151184 207.315842,705.682678 
	C209.818787,704.997192 211.911819,704.313354 212.335831,700.666870 
	C212.717926,697.381042 216.520218,695.505188 219.571228,695.395935 
	C236.470047,694.790771 247.647064,683.308044 260.096863,674.401917 
	C268.074280,668.695190 275.482391,662.187317 283.081665,655.960327 
	C285.654114,653.852356 288.254059,651.667053 289.984589,648.785217 
	C293.271027,643.312073 299.713287,641.925354 303.949188,637.714905 
	C304.506165,637.161255 305.101501,636.646301 306.532074,635.326355 
	C297.788452,637.159119 290.405792,639.699646 282.689514,640.818237 
	C279.188599,641.325684 275.694458,641.627625 272.246185,641.294983 
	C267.682709,640.854797 264.478333,637.418945 260.977600,634.920227 
	C258.845734,633.398438 260.911682,630.939209 261.467224,629.123169 
	C251.982376,620.797241 251.982376,620.797241 261.998871,611.452698 
	C260.722412,609.102661 256.524292,607.959290 257.870483,604.733826 
	C259.021606,601.975830 262.631897,602.162720 265.342346,601.527100 
	C283.930359,597.167847 303.249390,596.506348 321.517883,590.628662 
	C328.699463,588.318115 336.512695,586.985229 341.994385,580.381348 
	C339.417633,579.970947 337.241699,580.859558 335.326569,581.743713 
	C330.178284,584.120667 324.868988,582.472473 319.680695,582.611023 
	C315.695312,582.717468 314.550995,576.724060 317.543030,572.242249 
	C318.273193,571.148560 319.312836,570.256836 320.236725,569.297852 
	C324.037018,565.353149 322.775726,561.985596 317.912689,559.093506 
	C311.889832,555.511475 305.776215,551.439453 304.709320,543.496399 
	C304.414246,541.299438 303.329926,539.906250 301.714722,538.572083 
	C300.324371,537.423767 298.540436,536.135010 298.088715,534.573364 
	C296.081696,527.633850 293.220886,521.100647 289.738007,514.810486 
	C286.066376,508.179474 285.407928,500.543945 282.837494,493.501068 
	C280.364624,486.725403 276.834015,480.286194 275.129822,473.368652 
	C274.048889,468.980988 273.767120,464.928314 269.952332,461.701752 
	C267.312897,459.469269 267.877350,455.949829 269.108704,452.843994 
	C265.719574,449.475403 261.468445,447.558990 257.858429,444.923828 
	C251.808105,440.507324 245.008453,437.491425 239.080475,433.401031 
	C233.982849,429.883636 228.161789,427.071167 223.334137,422.651611 
	C220.032440,419.628967 214.096695,418.016754 209.148346,416.245117 
	C205.980881,415.111084 202.849777,413.980469 201.047684,410.824615 
	C199.898346,408.811890 197.750366,408.779846 195.861404,408.248291 
	C189.952103,406.585632 183.711960,405.958740 178.317917,402.686096 
	C176.772034,401.748199 174.787521,400.954437 174.798096,398.835693 
	C174.808990,396.648407 176.882294,395.973206 178.498749,395.222198 
	C185.068512,392.169861 192.167847,391.102234 199.216583,389.862427 
	C204.412125,388.948547 209.605423,388.022095 214.774399,386.695312 
	C201.965530,386.674133 189.280777,385.792328 176.768494,383.289001 
	C171.892502,382.313416 167.127747,380.767914 162.331207,379.415039 
	C160.056870,378.773590 157.995651,377.639557 156.320389,375.961945 
	C154.704269,374.343658 152.436859,372.694550 153.367477,370.122131 
	C154.200363,367.819916 156.738602,367.848602 158.930740,367.603394 
	C183.954803,364.804810 209.093918,365.090393 234.209229,364.742493 
	C237.369995,364.698700 240.531891,364.736511 244.397324,364.736511 
	C241.374252,362.981781 238.710373,363.424255 236.158432,363.361847 
	C216.260803,362.875122 196.613556,360.666534 177.689514,354.176208 
	C171.109848,351.919617 164.420792,349.663757 158.880905,345.136597 
	C158.365677,344.715576 157.740295,344.411377 157.284149,343.938965 
	C154.723282,341.286621 151.377380,338.307098 152.808380,334.559662 
	C154.321625,330.596771 158.760544,332.444489 161.732269,332.865784 
	C182.124908,335.756714 202.474335,338.953308 222.833679,342.077606 
	C228.555466,342.955658 234.263840,343.921082 240.071915,344.461212 
	C227.487701,340.789246 214.975693,336.952209 202.724228,332.391907 
	C189.430359,327.443634 176.335800,321.948486 166.409882,311.179810 
	C164.291641,308.881683 161.960785,306.502563 163.822021,302.585693 
M289.444855,665.971191 
	C278.030121,673.751892 267.079193,682.099243 257.411530,692.040527 
	C272.317719,683.164185 286.760040,673.681580 300.884308,661.872070 
	C295.969482,661.988770 292.896973,663.479736 289.444855,665.971191 
z"/>
<path fill="#000000" opacity="1.000000" stroke="none" 
	d="
M533.570068,482.582672 
	C529.661560,492.575775 526.932373,502.507599 525.439758,512.750977 
	C524.732849,517.602051 526.402405,522.230652 527.730713,527.285767 
	C522.689453,527.466003 518.577148,525.509094 514.335205,524.480713 
	C504.595764,522.119385 494.643585,521.456238 484.740936,520.596497 
	C478.863251,520.086182 474.763977,517.099060 471.162720,513.096069 
	C461.132599,501.947174 453.587555,489.308105 448.611450,475.108978 
	C447.064728,470.695526 449.609375,467.283600 452.356018,466.125397 
	C460.118744,462.852173 466.988403,458.017120 473.776947,453.470551 
	C481.134308,448.543060 489.154846,444.855103 496.918732,441.316071 
	C502.639282,438.708374 508.388275,434.864838 515.494934,434.374481 
	C519.840515,434.074677 523.983643,430.433746 528.896057,430.121002 
	C537.589783,429.567474 545.242310,424.871796 554.123230,424.225494 
	C560.566650,423.756592 566.685608,424.436127 572.893433,425.188141 
	C576.589600,425.635895 579.394592,427.846222 580.190735,431.769318 
	C580.965881,435.588684 579.451050,438.599823 576.476501,440.963257 
	C568.395630,447.383911 560.245544,453.719696 552.253357,460.248871 
	C544.720398,466.402924 538.019348,473.319489 533.570068,482.582672 
z"/>
</svg>