<svg version="1.2" xmlns="http://www.w3.org/2000/svg" viewBox="0 0 960 1091" width="960" height="1091">
	<style>
		.s0 { fill: #1b2325 } 
	</style>
	<g id="BG">
	</g>
	<g id="Folder 1">
		<path id="Shape 1" fill-rule="evenodd" class="s0" d="m476.3 505.77c0.96 5.06 9.61 22.2 14.24 29.8 4.49 7.39 13.12 18.57 17.79 20.02 4.67 1.44 15.79 1.55 25.46 3 9.68 1.45 19.02 3.34 27.36 6.56-8.67-14.46 2.89-42.7 6.79-50.38 3.89-7.67 14.34-20.24 30.47-31.69 16.12-11.45 19.35-14.57 18.57-19.57-0.78-5.01-4.7-8.99-25.25-8.01-4.67 0.22-1.11 2.23-1.11 2.23 0 0-23.8-1.78-15.9 3.11-11.23-1.22-30.36 3.56-18.46 5.78-13.24-0.55-22.35 2.11-14.46 4.01-12.23-0.45-19.46 4.11-13.01 6-7.56-0.22-18.35 2.89-12.34 5-6.34 0-9.9 3.34-9.9 3.34l1.33 2.78c-5.67-1-13.34 3.11-8.78 4.12-6.23 0.33-13.79 4.89-10.79 6.45-5.45-0.12-8.78 2-9.12 3.22-0.33 1.22 2.31 1.34 1.56 2.78-3.11-0.89-4.77-0.22-4.45 1.45z"/>
		<path id="Shape 2" fill-rule="evenodd" class="s0" d="m804.25 522.94c3.9-7.04-55.25-18.48-57.92-20.01-2.67-1.52-14.27-13.15-23.69-14.66-9.42-1.52-24.6-4.69-47.77 17.94-23.17 22.63-21.25 38.96-45.71 58.38-24.46 19.42-54.94 9.08-65.37 5.31-10.43-3.78-32.46-8.55-47.75-9.09 4.14 3.24 4.86 2.52 9.89 6.03-11.78-1.26-19.6-1.89-33.27-19.96 0 0-20.45-27.13-32.99-67.38-12.54-40.26-11.9-56.16-20.99-64.83-9.1-8.67-29.58-18.58-39.13-23.27-9.54-4.69-37.68-19.93-49.4-24.11-11.72-4.19-23.11-11.06-29.13-14.07-6.03-3.02-36.68-18.42-44.21-21.77-7.54-3.35-55.6-23.61-63.97-25.96-8.38-2.34-10.72 0.34-3.18 9.55 7.53 9.21 22.6 21.77 71 41.7-49.57-16.75-83.73-26.8-99.3-30.82-15.58-4.02-5.36 9.21 2.68 14.91 8.03 5.69 34.16 17.08 47.89 20.93 13.73 3.85 39.35 12.22 39.35 12.22-28.63-6.69-89.42-14.23-101.98-16.07-12.56-1.84-9.04 10.88 10.38 18.59 19.43 7.7 57.27 13.39 88.08 14.06-34.99 0.5-97.29 1.68-103.99 6.36-6.7 4.69 13.4 13.9 31.32 15.24 17.92 1.34 43.7 1.85 43.7 1.85-24.28 4.01-52.41 9.04-53.75 14.56 0 0 10.21 8.04 27.97 8.88-1.01 4.52 8.2 9.04 12.22 8.54 0.5 4.35 10.05 5.69 12.39 5.02 1.34 6.2 8.37 8.88 13.06 9.21 1.18 7.37 13.06 7.2 16.41 7.71 1.01 8.54 11.39 10.71 14.07 10.71 0.17 5.7 5.19 5.03 7.03 5.2-6.36 5.02-2.51 12.22 5.03 15.9-4.02 7.87 2.17 15.91 5.86 18.76-1.84 4.35 0.5 10.88 4.85 14.4-2.17 5.53 1.01 13.06 4.36 14.9-1.51 5.19 3.35 11.39 6.03 12.9-1.01 5.69 2.84 13.23 9.37 17.92-1.67 9.88 7.04 14.4 9.72 14.4-1.51 3.68 4.18 5.86 7.2 5.19-1.51 3.68 3.01 6.19 6.03 6.53-6.7 4.02-12.41 11.26-8.74 11.39-2.98 3.67-1.8 9.83 9.63 5.63-1.96 3.02 3.79 1.63 7.14 0.69 3.38-0.95 10.61-3.1 14.48-5.02-6.61 6.16-8.65 9.14-19.38 12.69-10.73 3.55-32.93 9.47-44.96 9.96-12.04 0.49-30.97 5.14-31.01 7.34-0.05 2.21 1.5 4.49 7.42 7.06-9.42 4.37-18.16 13.26-0.04 17.71-8.08 5.31-2.08 10.24 5.14 9.67 0 0-6.98 7.18 16.16 2.94 23.14-4.24 30.81-8.65 30.81-8.65-4.61 3.63-9.59 7.22-12.42 9.36-2.83 2.14-3.38 1.38-6.42 3.25-3.04 1.86-6.08 5.73-6.63 7.38-0.55 1.66-11.88 11.81-21.48 19-9.6 7.18-34.81 27.21-41.02 28.31-6.22 1.11-15.4-2.14-19.62 6.08-1.31 2.7 1.11 2.9 1.94 3.66-5.18 1.31-21.07 6.56-21.41 8.57-0.35 2-9.26 5.66-9.67 9.67-0.42 4 1.1 5.31 3.11 5.17 2-0.13 4.83-1.72 7.73-2.62-2.56 4.01-12.22 10.64-7.39 11.4 4.83 0.76 9.05 0.13 18.23-2.7 9.19-2.83 15.34-4.9 24.04-9.11 8.7-4.22 26.09-14.09 38.73-23.11 12.64-9.01 44.62-32.34 56.61-38.39 11.99-6.04 23.05-11.52 31.89-15.61 8.83-4.09 30.58-12.93 48.43-14.69 17.84-1.77 42.6-0.09 62.06-5.21 19.46-5.11 39.63-17.1 53.3-27.61 13.66-10.5 50.01-28.16 75.76-36.53 25.75-8.36 55.59-43.97 64.14-56.24 8.55-12.27 13.66-19.52 17.01-21.19 3.35-1.67 11.43-2.79 17.57-4.09 6.13-1.3 10.69-1.4 15.43-2.42 4.74-1.02 13.94-5.3 20.45-5.48 6.51-0.19 59.19 2.48 60.59-0.06z"/>
	</g>
</svg>